<svg width="70" height="70" viewBox="0 0 70 70" fill="none" xmlns="http://www.w3.org/2000/svg">
<path d="M32.656 69.009C27.8206 68.6446 22.9674 67.31 18.701 65.1712C15.2627 63.4476 12.2493 61.2512 9.60769 58.5432C2.51809 51.2756 -0.447307 41.2092 1.45289 30.8592C3.01749 22.3365 7.57309 15.2452 14.3799 10.7372C20.7963 6.4875 29.2159 4.4735 39.0119 4.845L41.1883 4.92749L41.9028 4.46587C44.7399 2.63277 47.6838 1.69837 52.6428 1.05687C53.9897 0.882632 54.1762 0.873782 54.3716 0.974841C54.6118 1.09904 54.6877 1.23558 54.6877 1.54348C54.6877 1.65484 54.2282 3.71708 53.6666 6.12628C52.6588 10.4496 52.6472 10.5101 52.7732 10.7746C52.8435 10.922 53.2807 11.7309 53.7448 12.5721C54.2089 13.4134 54.7128 14.3302 54.8644 14.6095C55.0161 14.8888 56.4308 17.4552 58.0083 20.3126C59.5857 23.17 61.8446 27.2657 63.0281 29.4142C66.2651 35.2905 68.0233 38.4773 68.4536 39.2481C68.9615 40.1578 69.0865 40.7352 69.0813 42.1486C69.0776 43.0647 69.0444 43.3689 68.8747 44.0218C68.0094 47.3498 64.9597 50.178 60.0679 52.1888C58.96 52.6442 57.7347 53.0471 57.4573 53.0471C57.2033 53.0471 57.0683 52.8929 56.3283 51.758C54.9931 49.7102 52.4171 46.7594 49.7873 44.2651C48.2828 42.8381 47.7719 42.4152 44.1407 39.5907C39.5265 36.0016 37.8648 34.5897 35.6607 32.3861C31.6658 28.392 29.7737 25.1097 29.4891 21.6802C29.3991 20.5964 29.6775 18.882 29.9949 18.5646C30.4111 18.1485 31.1611 18.5499 31.0589 19.1342C31.032 19.2884 30.9899 19.7877 30.9655 20.2437C30.9288 20.9265 30.9494 21.1849 31.0817 21.7085C31.7194 24.2302 34.1227 27.1135 38.4766 30.5803C40.4892 32.1828 41.8576 33.1658 46.0938 36.052C51.2878 39.5907 51.7922 39.9897 54.2579 42.5094C56.5659 44.868 57.7519 46.3363 58.6053 47.8911C58.8294 48.2993 59.02 48.644 59.029 48.6572C59.0685 48.715 60.0464 48.4122 60.6381 48.159C63.1537 47.0823 64.7822 44.9262 65.2756 42.0188L65.4038 41.2636L63.0819 37.3703C61.8048 35.229 60.1192 32.4047 59.336 31.0942C57.2102 27.5369 49.078 13.9112 48.526 12.9802C48.2618 12.5353 48.0271 12.0958 48.0043 12.0037C47.9792 11.902 48.3596 10.6997 48.9717 8.94548C50.1306 5.62468 50.1303 5.87968 48.9745 6.17418C47.186 6.63003 45.4478 7.46028 41.9175 9.54478C41.2036 9.96638 40.6651 10.2345 40.5325 10.2345C40.4132 10.2345 39.8841 10.1649 39.3568 10.08C36.8829 9.68128 34.2947 9.52385 31.7965 9.62013C26.2737 9.83299 21.1925 11.4977 16.9525 14.4835C12.1905 17.837 8.11963 23.3362 6.20153 29.0075C3.21053 37.8488 5.52009 48.0735 12.2315 55.7035C17.2225 61.3774 24.0595 64.9962 31.7185 66.0185C33.2965 66.2291 36.2571 66.3068 37.838 66.1791C44.8889 65.6099 51.091 62.8529 56.105 58.0584C56.8966 57.3016 57.0494 57.1883 57.279 57.1883C57.8891 57.1883 58.1134 57.6694 57.7737 58.2491C57.0106 59.5511 54.8692 61.8884 53.2355 63.2023C49.2118 66.4383 44.1497 68.3864 38.3115 68.9457C37.2023 69.052 33.7382 69.0905 32.656 69.009Z" fill="#949494"/>
</svg>
